<svg id="epa8eDBLQfU1" xmlns="http://www.w3.org/2000/svg" xmlns:xlink="http://www.w3.org/1999/xlink" viewBox="0 0 1200 1200" shape-rendering="geometricPrecision" text-rendering="geometricPrecision"><path d="M501.93958,781.96434c99.04276,97.1689,163.84776,50.71068,248.70058-34.14214s234.21266,67.325,149.35984,152.1778-141.42136,123.42136-141.42136,123.42136C679.65422,1082.47218,570,1100,496.0817,1040.94918s-106.0817-90.94918-197.9899-179.9899-168.69388-168.69402-254.55838-254.55852s76.56848-206.2741,161.34656-123.3699s198.01682,201.76456,297.05958,298.93346l.00002.00002ZM657.26269,418.28792c-99.04276-97.1689-163.84776-50.71068-248.70058,34.14214s-234.21266-67.325-149.35984-152.1778s141.42136-123.42136,141.42136-123.42136c78.92442-59.05082,188.57864-76.57864,262.49694-17.52782s106.0817,90.94918,197.9899,179.9899s168.69388,168.69402,254.55838,254.55852-76.56848,206.2741-161.34656,123.3699-198.01682-201.76456-297.05958-298.93346l-.00002-.00002Z" transform="translate(20.398902-.12611)" fill="#CFCFCF" stroke-width="0"/></svg>